<?xml version="1.0" standalone="no"?>
<!DOCTYPE svg PUBLIC "-//W3C//DTD SVG 20010904//EN"
 "http://www.w3.org/TR/2001/REC-SVG-20010904/DTD/svg10.dtd">
<svg version="1.0" xmlns="http://www.w3.org/2000/svg"
 width="720.000000pt" height="720.000000pt" viewBox="0 0 720.000000 720.000000"
 preserveAspectRatio="xMidYMid meet">
<metadata>
Created by potrace 1.11, written by Peter Selinger 2001-2013
</metadata>
<g transform="translate(0.000000,720.000000) scale(0.100000,-0.100000)"
fill="#000000" stroke="none">
<path d="M1929 6648 c-76 -15 -174 -70 -222 -123 -28 -31 -107 -152 -107 -164
0 -6 -5 -11 -11 -11 -5 0 -8 -4 -5 -9 3 -5 -1 -14 -9 -21 -8 -7 -15 -19 -15
-26 0 -8 -4 -14 -8 -14 -4 0 -13 -12 -19 -27 -7 -16 -26 -50 -43 -78 -17 -27
-35 -62 -41 -77 -6 -16 -15 -28 -20 -28 -5 0 -9 -4 -9 -9 0 -4 -51 -96 -113
-203 -62 -107 -116 -201 -120 -209 -4 -7 -16 -27 -26 -44 -18 -30 -71 -120
-119 -204 -14 -25 -38 -68 -55 -95 -33 -56 -56 -97 -95 -166 -14 -25 -45 -78
-69 -118 -24 -41 -43 -78 -43 -83 0 -5 -4 -9 -9 -9 -5 0 -13 -9 -16 -20 -4
-11 -23 -48 -44 -83 -21 -34 -49 -82 -63 -107 -14 -25 -35 -61 -47 -80 -11
-19 -24 -42 -28 -50 -3 -8 -21 -39 -40 -68 -18 -29 -33 -54 -33 -57 0 -3 -13
-26 -29 -52 -62 -104 -115 -198 -112 -202 1 -2 -1 -7 -6 -10 -5 -3 -40 -60
-78 -126 -37 -66 -73 -123 -79 -127 -6 -4 -7 -8 -3 -8 4 0 -8 -24 -26 -53 -19
-30 -38 -63 -41 -75 -4 -12 -12 -22 -17 -22 -6 0 -8 -4 -5 -9 3 -5 0 -14 -8
-20 -11 -10 -20 -36 -30 -91 -1 -3 -4 -9 -7 -15 -8 -13 -4 -139 6 -184 4 -19
19 -58 34 -85 44 -81 83 -150 91 -161 6 -9 20 -33 77 -135 8 -14 23 -38 33
-55 10 -16 25 -41 33 -55 24 -44 59 -104 78 -135 11 -16 22 -37 26 -45 3 -8
15 -27 25 -42 11 -16 16 -28 11 -28 -4 0 -3 -4 2 -8 10 -6 93 -145 163 -271
14 -25 35 -62 47 -81 12 -19 25 -42 28 -50 4 -8 15 -28 26 -45 10 -16 28 -48
41 -70 46 -82 325 -563 367 -633 23 -40 43 -77 43 -82 0 -6 5 -10 10 -10 6 0
10 -5 10 -11 0 -6 23 -48 50 -94 28 -46 50 -86 50 -91 0 -4 6 -15 14 -23 7 -9
25 -36 38 -61 14 -25 58 -101 98 -170 69 -119 110 -191 134 -235 6 -11 13 -22
16 -25 3 -3 14 -23 25 -44 30 -59 124 -149 191 -182 32 -16 63 -29 69 -31 5
-1 30 -5 55 -10 56 -10 3158 -9 3220 1 24 4 52 12 62 17 10 5 18 6 18 2 0 -4
4 -3 8 2 4 6 17 16 30 23 12 6 32 18 44 25 25 14 108 98 108 108 0 4 6 14 13
21 6 7 25 38 41 68 16 30 35 62 42 71 8 8 14 21 14 27 0 6 6 17 13 24 11 12
25 35 78 136 13 23 26 42 31 42 4 0 8 9 8 20 0 11 4 20 8 20 8 0 42 64 41 76
0 4 3 10 8 13 12 8 83 130 83 142 0 5 4 9 9 9 5 0 11 8 14 18 3 9 23 46 44 82
89 153 169 292 182 318 8 15 18 28 23 30 4 2 8 7 8 12 0 5 23 48 51 97 29 48
63 108 77 133 13 25 31 52 38 61 8 8 14 19 14 23 0 4 23 45 50 92 28 47 50 89
50 94 0 6 4 10 8 10 4 0 13 12 19 28 7 15 17 34 22 42 20 30 91 150 91 155 0
2 20 38 45 78 25 41 45 79 45 85 0 6 3 12 7 14 5 1 15 15 23 30 12 23 76 132
288 498 100 172 118 217 121 311 4 107 -13 158 -107 320 -38 64 -251 431 -262
449 -5 8 -49 85 -98 170 -49 85 -149 259 -222 385 -73 127 -144 250 -158 275
-13 25 -28 50 -32 55 -4 6 -17 26 -28 45 -10 19 -110 193 -222 385 -111 193
-214 372 -229 400 -14 27 -32 56 -39 63 -7 8 -19 28 -27 45 -8 18 -23 46 -34
62 -10 17 -27 46 -38 66 -118 207 -170 272 -250 314 -21 11 -41 24 -44 28 -3
5 -10 8 -15 8 -5 0 -27 5 -49 11 -45 13 -3203 19 -3266 6z"/>
</g>
</svg>
